<?xml version="1.0" standalone="no"?>
<!DOCTYPE svg PUBLIC "-//W3C//DTD SVG 20010904//EN"
 "http://www.w3.org/TR/2001/REC-SVG-20010904/DTD/svg10.dtd">
<svg version="1.0" xmlns="http://www.w3.org/2000/svg"
 width="493.000000pt" height="506.000000pt" viewBox="0 0 493.000000 506.000000"
 preserveAspectRatio="xMidYMid meet">

<g transform="translate(0.000000,506.000000) scale(0.100000,-0.100000)"
fill="#000000" stroke="none">
<path d="M2330 5029 c-19 -11 -48 -38 -63 -60 l-28 -39 -142 0 c-173 -1 -308
-13 -407 -39 -164 -43 -163 -42 -134 -86 22 -34 40 -37 86 -14 78 40 124 27
164 -46 14 -27 16 -37 6 -47 -9 -9 -21 -7 -55 10 -78 39 -112 23 -86 -40 15
-38 106 -161 150 -205 59 -58 248 -157 266 -140 10 11 -8 27 -67 58 -62 33
-190 150 -190 173 0 8 15 17 34 20 19 4 39 13 46 21 7 8 25 15 41 15 15 0 39
4 53 10 23 8 24 12 14 41 -10 30 -12 31 -53 25 -42 -7 -42 -7 -85 51 -24 32
-50 62 -57 66 -7 4 -13 14 -13 22 0 17 58 24 258 29 161 3 184 -2 177 -41 -2
-10 -4 -37 -4 -61 -1 -26 -6 -45 -15 -48 -7 -3 -49 18 -92 45 -85 55 -121 62
-149 31 -19 -22 -14 -50 10 -50 20 0 154 -66 177 -87 10 -9 18 -21 18 -28 0
-16 -46 -57 -112 -99 -31 -20 -60 -41 -64 -47 -7 -11 24 -60 42 -66 5 -2 41
23 79 56 39 33 73 56 78 52 4 -4 10 -32 14 -62 6 -51 51 -139 72 -139 5 0 10
115 13 256 5 299 0 286 100 271 35 -5 69 -15 77 -21 14 -11 12 -53 -8 -201 -5
-33 -14 -101 -21 -151 l-13 -92 39 -46 39 -47 6 43 c4 24 15 115 24 203 9 88
21 184 27 213 l10 53 39 -6 39 -7 0 36 c0 34 -2 36 -42 42 -23 4 -52 17 -64
29 -14 14 -26 19 -32 13 -5 -5 -18 -5 -33 1 -13 5 -50 13 -82 16 -63 7 -83 26
-51 50 32 24 87 18 132 -15 72 -52 49 9 -25 65 -53 41 -91 45 -143 14z"/>
<path d="M2776 4798 c-12 -46 -7 -58 34 -74 35 -14 40 -20 40 -48 0 -18 -14
-86 -31 -152 -37 -143 -35 -205 6 -241 29 -25 84 -30 131 -13 39 15 46 2 29
-54 -21 -71 -19 -107 12 -162 l27 -49 13 50 c7 28 24 91 37 140 13 50 36 143
52 209 15 65 33 120 40 123 13 5 147 -88 172 -119 19 -24 12 -138 -10 -152
-26 -16 -56 18 -64 71 -9 61 -27 77 -64 58 -67 -35 -101 -249 -66 -413 8 -35
17 -66 20 -69 3 -4 6 38 7 93 1 151 28 258 58 222 43 -53 59 -67 83 -72 41 -9
62 28 104 182 6 20 18 14 59 -28 34 -34 37 -42 28 -62 -9 -18 -168 -208 -244
-291 -26 -29 -42 -147 -19 -147 5 0 25 21 45 48 38 50 142 166 237 266 57 58
58 59 78 41 20 -18 21 -18 45 5 14 13 25 27 25 30 0 4 -13 23 -30 41 -16 19
-30 37 -30 41 0 20 -275 254 -384 327 -113 76 -386 221 -416 221 -10 0 -20
-10 -24 -22z m236 -167 c57 -37 73 -63 60 -99 -6 -15 -16 -49 -22 -77 -21 -82
-33 -95 -89 -95 -65 0 -76 14 -67 87 8 70 36 184 49 201 13 17 17 16 69 -17z"/>
<path d="M1345 4790 c-12 -4 -67 -35 -123 -69 -56 -34 -105 -61 -108 -61 -16
0 -237 -162 -308 -226 -148 -132 -290 -324 -394 -534 -28 -55 -145 -408 -153
-460 -15 -101 -29 -254 -29 -327 0 -79 -5 -73 63 -76 21 -1 22 2 25 106 1 59
7 118 12 132 11 30 66 42 120 26 44 -13 57 -48 34 -95 -10 -22 -11 -32 -3 -42
8 -9 8 -14 1 -14 -6 0 -12 6 -15 13 -3 9 -9 9 -23 1 -38 -22 -24 -74 20 -74
12 0 26 -4 32 -10 6 -6 15 -6 24 0 13 8 12 10 -2 10 -10 0 -18 4 -18 10 0 13
76 6 93 -9 19 -16 77 -26 77 -13 0 5 16 13 35 16 37 7 46 22 18 29 -10 3 -2 5
18 6 40 1 83 20 117 51 12 11 22 18 22 14 0 -4 16 9 35 29 69 71 29 61 -111
-28 -28 -18 -70 -36 -92 -40 -23 -4 -40 -10 -37 -15 6 -10 -54 -22 -68 -13 -6
3 -7 1 -3 -5 4 -7 1 -12 -8 -12 -9 0 -16 5 -16 10 0 6 -12 10 -27 11 l-28 1
25 8 c14 4 20 8 13 9 -17 1 -4 32 23 53 27 22 39 65 23 84 -9 11 -9 21 0 40 6
14 11 42 11 62 0 57 10 66 66 58 27 -4 86 -16 132 -27 87 -21 109 -19 154 14
35 26 25 38 -39 48 -27 4 -68 13 -93 18 -25 6 -67 15 -95 21 -27 5 -81 17
-120 25 -38 9 -103 22 -144 30 -40 7 -77 17 -82 22 -9 9 33 132 68 200 22 41
62 57 120 47 39 -7 93 -59 93 -90 0 -27 -34 -54 -68 -54 -39 0 -62 -18 -62
-50 0 -38 36 -56 142 -70 126 -18 291 16 392 80 65 42 57 53 -16 22 -51 -21
-84 -26 -171 -30 -123 -5 -144 3 -109 41 15 16 22 36 22 64 0 23 5 64 12 92
13 57 33 66 78 34 16 -11 51 -18 106 -21 82 -4 82 -4 119 30 34 31 38 39 40
91 1 31 4 60 8 63 3 3 32 -3 64 -14 l58 -20 0 -82 c0 -77 2 -83 28 -106 50
-43 141 -26 216 42 25 23 43 45 40 48 -3 3 -29 -3 -57 -14 -62 -24 -95 -25
-112 -5 -19 23 -7 49 28 60 17 5 32 14 32 21 0 17 -77 84 -97 84 -9 0 -45 14
-80 30 -34 17 -67 30 -72 30 -6 0 -34 13 -63 28 -29 16 -73 35 -98 42 -52 16
-70 33 -70 70 0 41 23 64 62 63 49 -1 78 -19 153 -92 36 -35 68 -61 72 -57 11
10 -68 155 -99 181 -36 31 -101 49 -147 41 -56 -9 -85 -36 -97 -92 -12 -60
-28 -65 -90 -29 -43 25 -45 28 -31 48 7 12 43 44 78 70 35 27 80 64 100 83 37
36 183 124 206 124 17 0 93 -69 93 -85 0 -6 -18 -28 -40 -48 -23 -21 -40 -45
-40 -57 0 -52 55 -123 131 -169 57 -35 63 -24 15 30 -40 44 -46 57 -46 95 0
45 17 64 57 64 20 0 93 -65 154 -137 35 -42 38 -43 95 -43 l59 0 -27 28 c-15
15 -99 101 -187 191 -148 150 -185 201 -148 201 12 0 227 -219 332 -337 34
-39 41 -43 86 -43 26 0 51 4 54 10 3 5 -47 62 -112 127 -65 65 -146 151 -181
193 -53 63 -62 79 -57 102 5 21 1 33 -19 53 -26 26 -38 29 -71 15z m-570 -584
c39 -17 43 -30 18 -58 -24 -27 -29 -124 -9 -171 l15 -38 -34 -14 c-18 -8 -37
-24 -40 -36 -6 -17 -12 -20 -33 -14 -15 4 -60 9 -99 12 -57 4 -73 8 -73 20 0
20 54 112 139 234 61 87 61 88 116 65z m225 -82 c80 -32 116 -61 124 -97 6
-30 -3 -54 -30 -81 -20 -21 -105 -21 -150 0 -73 35 -119 117 -93 166 24 47 58
49 149 12z m-474 -654 c16 -14 19 -82 4 -110 -9 -17 -21 -19 -101 -17 l-91 2
7 58 c10 93 8 90 92 84 41 -3 81 -11 89 -17z m314 -284 c0 -3 -4 -8 -10 -11
-5 -3 -10 -1 -10 4 0 6 5 11 10 11 6 0 10 -2 10 -4z m-30 -20 c0 -2 -7 -7 -16
-10 -8 -3 -12 -2 -9 4 6 10 25 14 25 6z"/>
<path d="M2617 4703 c-4 -3 -7 -19 -7 -35 0 -32 25 -39 35 -9 10 32 -10 63
-28 44z"/>
<path d="M2590 4481 c-13 -25 -4 -64 13 -58 15 5 22 56 9 69 -7 7 -14 3 -22
-11z"/>
<path d="M2190 4229 c-41 -4 -106 -15 -145 -25 -73 -18 -108 -44 -168 -126
-29 -39 -71 -155 -80 -221 -4 -23 -17 -50 -32 -65 -16 -15 -23 -32 -20 -41 16
-40 32 -131 28 -152 -2 -13 1 -37 7 -53 9 -26 14 -28 45 -23 29 5 40 1 60 -19
14 -14 25 -35 25 -46 0 -14 3 -19 10 -12 6 6 -4 43 -26 103 -53 142 -65 248
-31 291 33 42 85 71 179 100 57 17 129 40 162 50 l59 19 46 -23 c55 -28 126
-51 203 -66 31 -6 62 -18 68 -26 7 -7 19 -14 27 -14 15 0 83 -67 83 -82 0 -5
4 -7 8 -4 13 8 2 -113 -14 -169 -8 -27 -16 -57 -18 -65 -5 -25 -19 -52 -35
-71 -39 -43 -111 -161 -111 -181 1 -20 56 49 96 120 34 60 64 85 90 75 7 -2
15 1 20 8 5 9 2 10 -9 6 -9 -3 -19 -2 -23 4 -4 6 -11 5 -21 -3 -14 -11 -15
-11 -6 7 12 22 25 68 45 159 14 63 30 80 47 48 8 -15 7 -28 -5 -50 -21 -44
-25 -71 -17 -122 l7 -45 7 68 c4 37 12 74 18 80 5 7 11 30 13 51 3 34 -1 41
-27 56 -27 15 -31 23 -36 77 -7 72 -42 172 -81 229 -40 60 -124 120 -178 129
-25 3 -58 10 -75 15 -50 14 -116 17 -195 9z m38 -31 c14 -18 26 -102 18 -133
-8 -30 -21 -38 -149 -82 -56 -19 -130 -48 -165 -64 -35 -16 -67 -29 -72 -29
-37 0 12 151 72 222 26 31 139 76 222 88 28 4 54 8 57 9 4 0 11 -5 17 -11z
m190 -9 c80 -21 113 -41 178 -107 55 -56 58 -61 77 -119 20 -61 21 -75 6 -90
-8 -8 -16 -7 -30 5 -23 20 -124 58 -206 77 -80 20 -149 61 -163 99 -11 32 -14
115 -4 140 8 22 48 20 142 -5z m-595 -524 c11 -57 12 -84 4 -93 -14 -18 -28
-2 -33 39 -2 19 -8 56 -14 84 -6 27 -8 56 -5 64 12 30 33 -13 48 -94z"/>
<path d="M1425 4200 c3 -5 11 -10 16 -10 6 0 7 5 4 10 -3 6 -11 10 -16 10 -6
0 -7 -4 -4 -10z"/>
<path d="M3654 4100 c-10 -3 -31 -13 -46 -24 -24 -16 -28 -25 -28 -65 0 -69 9
-77 58 -56 38 17 39 20 35 55 -6 42 6 55 41 46 48 -12 58 -104 17 -153 -44
-52 -134 -81 -158 -50 -10 12 -26 59 -37 108 -11 52 -58 45 -95 -15 -28 -45
-55 -235 -48 -335 7 -95 23 -113 32 -35 10 89 37 228 46 238 5 5 21 -5 38 -22
24 -27 36 -32 73 -32 120 1 218 97 221 216 1 48 -2 57 -32 88 -33 34 -76 47
-117 36z"/>
<path d="M3841 3889 c-17 -10 -31 -22 -31 -25 0 -4 14 -30 30 -59 17 -29 28
-59 25 -66 -5 -14 -221 -122 -325 -162 -51 -21 -55 -25 -63 -64 -16 -81 -8
-80 168 9 179 90 264 123 278 109 19 -19 -3 -37 -119 -95 -66 -33 -121 -62
-124 -65 -3 -3 -12 -7 -20 -8 -32 -4 -92 -31 -110 -49 -10 -10 -21 -30 -24
-44 -2 -14 -9 -38 -15 -53 -6 -16 -11 -32 -11 -37 0 -8 85 28 120 50 8 5 31
16 50 25 19 8 42 19 50 25 41 26 160 80 202 91 38 10 49 10 62 0 9 -8 16 -18
16 -23 0 -22 32 -118 38 -114 4 2 7 -24 7 -57 0 -51 -3 -62 -17 -65 -10 -2
-18 -12 -18 -22 0 -17 4 -18 28 -10 l27 10 -25 -20 c-14 -11 -31 -20 -37 -20
-7 0 -13 -5 -13 -11 0 -6 7 -9 15 -5 9 3 15 0 15 -8 0 -9 7 -12 19 -9 26 7 37
-18 45 -102 15 -158 14 -155 54 -155 l35 0 -7 112 c-4 62 -13 139 -22 171 -19
76 -12 106 35 145 46 38 91 139 91 205 0 87 -63 139 -168 139 -26 0 -55 2 -64
4 -10 3 -43 59 -80 134 -35 71 -68 131 -74 134 -6 2 -25 -4 -43 -15z m327
-362 c46 -37 53 -117 17 -194 -41 -90 -69 -64 -99 95 -20 103 -12 127 37 116
18 -3 38 -11 45 -17z m-283 -17 c-3 -5 -14 -10 -23 -9 -14 0 -13 2 3 9 27 11
27 11 20 0z m-5 -30 c0 -5 -7 -7 -15 -4 -8 4 -15 8 -15 10 0 2 7 4 15 4 8 0
15 -4 15 -10z m-215 -30 c3 -5 1 -10 -4 -10 -6 0 -11 5 -11 10 0 6 2 10 4 10
3 0 8 -4 11 -10z m-8 -26 c-3 -3 -12 -4 -19 -1 -8 3 -5 6 6 6 11 1 17 -2 13
-5z m-47 -29 c11 -13 10 -14 -4 -9 -9 3 -16 10 -16 15 0 13 6 11 20 -6z m497
-277 c-3 -8 -6 -5 -6 6 -1 11 2 17 5 13 3 -3 4 -12 1 -19z m20 -15 c-3 -10 -5
-4 -5 12 0 17 2 24 5 18 2 -7 2 -21 0 -30z"/>
<path d="M2698 3533 c7 -3 16 -2 19 1 4 3 -2 6 -13 5 -11 0 -14 -3 -6 -6z"/>
<path d="M155 3500 c-11 -17 30 -54 50 -46 27 10 15 50 -17 54 -14 2 -29 -2
-33 -8z"/>
<path d="M1935 3428 c-9 -22 26 -94 43 -90 8 1 11 -2 7 -7 -6 -10 52 -59 62
-53 3 2 9 -2 14 -9 4 -8 11 -10 15 -6 6 6 -5 20 -88 109 -15 16 -27 30 -26 31
1 1 -3 11 -9 22 -11 18 -12 18 -18 3z"/>
<path d="M3764 3362 c-77 -43 -123 -78 -119 -90 3 -7 1 -10 -5 -7 -5 3 -16 -8
-25 -25 -8 -16 -19 -30 -24 -30 -10 0 -54 -80 -48 -87 2 -2 18 13 35 34 18 21
38 45 45 54 7 8 11 21 9 29 -3 7 0 10 6 6 6 -4 29 4 50 18 73 46 105 39 130
-26 11 -29 23 -60 26 -69 7 -15 -62 -50 -179 -91 -31 -11 -41 -20 -45 -43 -4
-17 -15 -43 -24 -58 -19 -28 -10 -35 22 -17 9 5 35 16 57 24 22 7 73 26 113
41 96 36 114 30 95 -36 -17 -59 -49 -75 -128 -65 -31 3 -55 2 -55 -3 0 -5 21
-19 47 -31 37 -17 60 -21 106 -18 82 6 98 25 107 126 7 85 13 102 36 102 8 0
14 4 14 10 0 13 -34 7 -54 -9 -25 -21 -19 5 7 30 l22 21 -22 -7 c-23 -6 -32 8
-13 20 6 3 10 11 10 16 0 6 -4 8 -10 4 -5 -3 -14 14 -21 37 -20 77 -32 103
-57 131 -30 31 -62 34 -108 9z"/>
<path d="M2453 3270 c-18 -9 -38 -22 -45 -27 -26 -20 -109 -35 -163 -31 -35 3
-59 0 -65 -7 -7 -8 -1 -10 23 -8 22 3 28 1 19 -5 -16 -11 128 -9 170 3 23 6
30 3 46 -25 12 -20 22 -27 27 -20 4 6 1 17 -5 25 -7 8 -9 15 -4 15 5 0 2 5 -6
10 -10 6 -11 10 -2 10 6 0 12 7 12 15 0 8 4 15 9 15 7 0 24 41 18 46 -1 1 -17
-6 -34 -16z"/>
<path d="M2081 3252 c-11 -21 -9 -47 4 -59 4 -4 5 -2 1 5 -7 12 21 17 67 13 9
-1 17 3 17 8 0 11 -19 15 -57 12 -17 -1 -20 3 -16 19 7 25 -3 26 -16 2z"/>
<path d="M3980 3185 c-10 -12 -10 -15 4 -15 9 0 16 7 16 15 0 8 -2 15 -4 15
-2 0 -9 -7 -16 -15z"/>
<path d="M2470 3108 c0 -9 9 -27 20 -41 11 -14 20 -29 20 -35 0 -5 11 -21 25
-36 31 -33 31 -43 3 -74 l-23 -25 27 17 c14 10 29 24 32 32 4 9 11 12 18 8 8
-5 7 0 -2 12 -27 34 -37 43 -44 37 -3 -4 -6 1 -6 10 0 10 -4 17 -9 17 -5 0
-15 15 -21 34 -13 39 -40 69 -40 44z"/>
<path d="M550 3080 c0 -5 4 -10 9 -10 6 0 13 5 16 10 3 6 -1 10 -9 10 -9 0
-16 -4 -16 -10z"/>
<path d="M1930 2968 c0 -9 5 -20 10 -23 13 -8 13 5 0 25 -8 13 -10 13 -10 -2z"/>
<path d="M2586 2928 c3 -4 14 -8 25 -8 24 0 37 -29 18 -42 -11 -8 -10 -9 4 -4
9 3 17 2 17 -3 0 -5 15 -11 33 -14 17 -3 40 -8 50 -12 9 -4 17 -3 17 3 0 5
-13 15 -30 22 -16 7 -30 17 -30 22 0 6 -9 8 -20 5 -11 -3 -18 -2 -16 2 8 12
-27 37 -51 37 -12 0 -19 -4 -17 -8z"/>
<path d="M1946 2916 c3 -9 13 -16 22 -16 8 0 13 1 11 3 -2 1 -12 9 -22 16 -15
12 -17 12 -11 -3z"/>
<path d="M2600 2900 c0 -5 5 -10 10 -10 6 0 10 5 10 10 0 6 -4 10 -10 10 -5 0
-10 -4 -10 -10z"/>
<path d="M1683 2885 c0 -8 4 -12 9 -9 5 3 6 10 3 15 -9 13 -12 11 -12 -6z"/>
<path d="M2532 2865 c-7 -8 -9 -15 -4 -15 5 0 15 7 22 15 16 19 -1 19 -18 0z"/>
<path d="M2575 2860 c-3 -5 1 -10 9 -10 9 0 16 5 16 10 0 6 -4 10 -9 10 -6 0
-13 -4 -16 -10z"/>
<path d="M2778 2824 c6 -3 12 -12 12 -20 0 -8 5 -14 10 -14 6 0 10 5 10 10 0
6 5 10 11 10 8 0 8 -5 -1 -15 -10 -12 -10 -15 3 -15 8 0 20 6 26 14 9 11 7 15
-11 21 -28 9 -78 16 -60 9z"/>
<path d="M1445 2802 c-11 -4 -21 -12 -22 -18 -2 -9 4 -9 22 0 14 6 25 14 25
19 0 4 -1 7 -2 6 -2 -1 -12 -4 -23 -7z"/>
<path d="M2878 2793 c6 -2 18 -2 25 0 6 3 1 5 -13 5 -14 0 -19 -2 -12 -5z"/>
<path d="M1385 2770 c-3 -5 -1 -10 4 -10 6 0 11 5 11 10 0 6 -2 10 -4 10 -3 0
-8 -4 -11 -10z"/>
<path d="M2100 2776 c0 -2 7 -7 16 -10 8 -3 12 -2 9 4 -6 10 -25 14 -25 6z"/>
<path d="M2775 2770 c-16 -3 -29 -11 -27 -18 1 -7 -2 -12 -6 -12 -5 0 -17 -7
-28 -15 -17 -14 -16 -14 13 0 18 8 38 15 46 15 14 0 44 28 36 33 -2 2 -17 0
-34 -3z"/>
<path d="M2830 2770 c-8 -5 -10 -10 -5 -10 6 0 17 5 25 10 8 5 11 10 5 10 -5
0 -17 -5 -25 -10z"/>
<path d="M3010 2737 c64 -30 71 -33 88 -36 16 -2 52 -38 45 -45 -3 -3 -1 -6 6
-6 8 0 11 -7 7 -15 -3 -8 -1 -15 3 -15 17 0 21 -32 6 -46 -8 -9 -15 -19 -15
-24 0 -5 -12 -15 -26 -22 -14 -7 -33 -26 -42 -43 -10 -16 -21 -33 -27 -37 -6
-5 -3 -8 6 -8 20 0 42 24 31 35 -4 5 -1 5 5 1 8 -4 17 2 25 18 6 14 15 26 19
26 4 0 11 9 14 20 3 11 11 20 16 20 5 0 8 -3 7 -7 -4 -12 28 -54 35 -46 4 3 8
2 8 -3 1 -5 3 -21 4 -35 2 -15 14 -52 28 -84 18 -43 26 -53 31 -40 6 16 -7 73
-22 100 -13 21 -59 165 -55 169 9 9 -18 46 -29 40 -7 -5 -9 -2 -6 8 5 11 -6
22 -36 37 -24 11 -46 21 -50 21 -4 0 -32 11 -62 25 -30 14 -60 25 -67 24 -7 0
17 -15 53 -32z"/>
<path d="M2385 2750 c-3 -5 -1 -10 4 -10 6 0 11 5 11 10 0 6 -2 10 -4 10 -3 0
-8 -4 -11 -10z"/>
<path d="M1220 2614 c0 -8 5 -12 10 -9 6 3 10 10 10 16 0 5 -4 9 -10 9 -5 0
-10 -7 -10 -16z"/>
<path d="M2191 2565 c-20 -7 -29 -15 -23 -19 10 -6 62 19 62 30 0 2 -1 3 -2 3
-2 -1 -18 -7 -37 -14z"/>
<path d="M2043 2513 c-7 -2 -13 -8 -13 -13 0 -10 38 -1 46 11 6 10 -13 11 -33
2z"/>
<path d="M2796 2495 c-11 -8 -15 -15 -9 -15 6 0 16 7 23 15 16 19 11 19 -14 0z"/>
<path d="M1890 2460 c-12 -8 -10 -9 7 -7 12 2 26 6 29 10 11 11 -19 8 -36 -3z"/>
<path d="M1835 2444 l-30 -13 27 -1 c15 0 30 5 33 11 11 16 2 17 -30 3z"/>
<path d="M3050 2419 c0 -5 5 -7 10 -4 6 3 10 8 10 11 0 2 -4 4 -10 4 -5 0 -10
-5 -10 -11z"/>
<path d="M1607 2370 c-19 -22 -22 -35 -7 -25 10 6 34 45 28 45 -2 0 -11 -9
-21 -20z"/>
<path d="M3290 2314 c0 -20 22 -74 31 -74 12 0 12 1 -11 46 -10 21 -19 34 -20
28z"/>
<path d="M1057 2271 c-4 -17 -3 -21 5 -13 5 5 8 16 6 23 -3 8 -7 3 -11 -10z"/>
<path d="M3323 2215 c-3 -9 -3 -18 -1 -21 3 -3 8 4 11 16 6 23 -1 27 -10 5z"/>
<path d="M3336 2173 c-6 -14 -5 -15 5 -6 7 7 10 15 7 18 -3 3 -9 -2 -12 -12z"/>
<path d="M3350 1999 c0 -5 -4 -7 -10 -4 -5 3 -10 1 -10 -4 0 -16 36 -13 50 4
10 13 9 15 -9 15 -11 0 -21 -5 -21 -11z"/>
<path d="M3293 1970 c-13 -5 -23 -11 -23 -14 0 -7 40 6 46 15 6 10 6 10 -23
-1z"/>
<path d="M2606 1795 c-3 -8 -1 -15 4 -15 6 0 10 7 10 15 0 8 -2 15 -4 15 -2 0
-6 -7 -10 -15z"/>
<path d="M3161 1154 c0 -11 3 -14 6 -6 3 7 2 16 -1 19 -3 4 -6 -2 -5 -13z"/>
<path d="M468 823 c7 -3 16 -2 19 1 4 3 -2 6 -13 5 -11 0 -14 -3 -6 -6z"/>
<path d="M440 800 c-8 -5 -12 -12 -9 -15 4 -3 12 1 19 10 14 17 11 19 -10 5z"/>
<path d="M3917 769 c7 -7 15 -10 18 -7 3 3 -2 9 -12 12 -14 6 -15 5 -6 -5z"/>
<path d="M3936 732 c-3 -5 1 -9 9 -9 8 0 12 4 9 9 -3 4 -7 8 -9 8 -2 0 -6 -4
-9 -8z"/>
<path d="M1620 697 c0 -21 22 -27 96 -27 77 0 84 15 13 24 -29 4 -65 10 -80
13 -22 4 -29 2 -29 -10z"/>
<path d="M3913 495 c-3 -9 -3 -18 -1 -21 3 -3 8 4 11 16 6 23 -1 27 -10 5z"/>
</g>
</svg>
